<?xml version="1.0" encoding="UTF-8" standalone="no"?>
<!DOCTYPE svg PUBLIC "-//W3C//DTD SVG 1.1//EN" "http://www.w3.org/Graphics/SVG/1.1/DTD/svg11.dtd">
<svg width="100%" height="100%" viewBox="0 0 256 256" version="1.1" xmlns="http://www.w3.org/2000/svg" xmlns:xlink="http://www.w3.org/1999/xlink" xml:space="preserve" xmlns:serif="http://www.serif.com/" style="fill-rule:evenodd;clip-rule:evenodd;stroke-linecap:round;stroke-linejoin:round;stroke-miterlimit:1.5;">
    <g transform="matrix(0.738508,0,0,0.738508,16.5948,63.1509)">
        <path d="M249.436,32.372C253.094,41.403 255.109,51.272 255.109,61.607L255.109,175.619C255.109,218.666 220.161,253.614 177.115,253.614L63.103,253.614C20.057,253.614 -14.891,218.666 -14.891,175.619L-14.891,61.607C-14.891,18.561 20.057,-16.387 63.103,-16.387L177.115,-16.387C187.451,-16.387 197.319,-14.372 206.35,-10.714L170.046,25.59L63.103,25.59C43.224,25.59 27.085,41.729 27.085,61.607L27.085,175.619C27.085,195.498 43.224,211.637 63.103,211.637L177.115,211.637C196.994,211.637 213.133,195.498 213.133,175.619L213.133,68.676L249.436,32.372Z" style="fill:white;"/>
    </g>
    <g transform="matrix(0.707107,0.707107,-0.707107,0.707107,179.375,-104.35)">
        <g transform="matrix(1,-2.45174e-16,-2.6353e-16,1.65985,-5.49396e-14,-30.2816)">
            <path d="M128,151.876L128,45.892" style="fill:none;stroke:white;stroke-width:22.62px;"/>
        </g>
        <g transform="matrix(-1,0,0,1,256,0)">
            <path d="M128,45.892L92.727,88.678" style="fill:none;stroke:white;stroke-width:31px;"/>
        </g>
        <path d="M128,45.892L92.727,88.678" style="fill:none;stroke:white;stroke-width:31px;"/>
    </g>
</svg>
